<svg width="101" height="67" viewBox="0 0 101 67" fill="none" xmlns="http://www.w3.org/2000/svg">
<path d="M91 0H10C4.47715 0 0 4.47715 0 10V57C0 62.5228 4.47715 67 10 67H91C96.5229 67 101 62.5228 101 57V10C101 4.47715 96.5229 0 91 0Z" fill="#F8F8F8"/>
<path d="M10 61C8.93913 61 7.92153 60.5785 7.17139 59.8284C6.42124 59.0782 6 58.0609 6 57V19.751H95V57C95 58.0609 94.5783 59.0782 93.8281 59.8284C93.078 60.5785 92.0609 61 91 61H10ZM6 19.751V10C6 8.93913 6.42124 7.92178 7.17139 7.17163C7.92153 6.42149 8.93913 6 10 6H91C92.0609 6 93.078 6.42149 93.8281 7.17163C94.5783 7.92178 95 8.93913 95 10V19.751H6Z" fill="white"/>
<path d="M77.6484 14H70.6484C69.5439 14 68.6484 14.8954 68.6484 16V22C68.6484 23.1046 69.5439 24 70.6484 24H77.6484C78.753 24 79.6484 23.1046 79.6484 22V16C79.6484 14.8954 78.753 14 77.6484 14Z" fill="#E89296"/>
<path d="M77.6484 29H70.6484C69.5439 29 68.6484 29.8954 68.6484 31V38C68.6484 39.1046 69.5439 40 70.6484 40H77.6484C78.753 40 79.6484 39.1046 79.6484 38V31C79.6484 29.8954 78.753 29 77.6484 29Z" fill="#A5A9FB"/>
<path d="M77.6484 44H70.6484C69.5439 44 68.6484 44.8954 68.6484 46V52C68.6484 53.1046 69.5439 54 70.6484 54H77.6484C78.753 54 79.6484 53.1046 79.6484 52V46C79.6484 44.8954 78.753 44 77.6484 44Z" fill="#F7E68B"/>
<path d="M37 14H22V29H37V14ZM34.5 26.5H24.5V16.5H34.5V26.5Z" fill="#5482DB"/>
<path d="M27 19H32V24H27V19Z" fill="#5482DB"/>
<path d="M22 54H37V39H22V54ZM24.5 41.5H34.5V51.5H24.5V41.5Z" fill="#5482DB"/>
<path d="M27 44H32V49H27V44Z" fill="#5482DB"/>
<path d="M47 14V29H62V14H47ZM59.5 26.5H49.5V16.5H59.5V26.5Z" fill="#5482DB"/>
<path d="M52 19H57V24H52V19Z" fill="#5482DB"/>
<path d="M27 31.5H22V36.5H29.5V34H27V31.5Z" fill="#5482DB"/>
<path d="M39.5 36.5H44.5V41.5H39.5V36.5Z" fill="#5482DB"/>
<path d="M29.5 31.5H34.5V34H29.5V31.5Z" fill="#5482DB"/>
<path d="M44.5 44H39.5V46.5H42V49H44.5V44Z" fill="#5482DB"/>
<path d="M37 31.5V34H34.5V36.5H39.5V31.5H37Z" fill="#5482DB"/>
<path d="M42 24H44.5V29H42V24Z" fill="#5482DB"/>
<path d="M44.5 34V36.5H49.5V31.5H42V34H44.5Z" fill="#5482DB"/>
<path d="M39.5 29H42V31.5H39.5V29Z" fill="#5482DB"/>
<path d="M44.5 49H49.5V54H44.5V49Z" fill="#5482DB"/>
<path d="M39.5 49H42V54H39.5V49Z" fill="#5482DB"/>
<path d="M44.5 41.5H47V44H44.5V41.5Z" fill="#5482DB"/>
<path d="M44.5 21.5V16.5H42V14H39.5V24H42V21.5H44.5Z" fill="#5482DB"/>
<path d="M52 49H54.5V54H52V49Z" fill="#5482DB"/>
<path d="M52 44H57V46.5H52V44Z" fill="#5482DB"/>
<path d="M49.5 46.5H52V49H49.5V46.5Z" fill="#5482DB"/>
<path d="M47 44H49.5V46.5H47V44Z" fill="#5482DB"/>
<path d="M57 39V41.5H59.5V44H62V39H57Z" fill="#5482DB"/>
<path d="M59.5 46.5H57V54H62V49H59.5V46.5Z" fill="#5482DB"/>
<path d="M47 39V41.5H54.5V36.5H49.5V39H47Z" fill="#5482DB"/>
<path d="M52 31.5V34H57V36.5H62V31.5H52Z" fill="#5482DB"/>
</svg>
