<svg width="101" height="69" viewBox="0 0 101 69" fill="none" xmlns="http://www.w3.org/2000/svg">
<path d="M3 37H45C45.7957 37 46.5587 37.3161 47.1213 37.8787C47.6839 38.4413 48 39.2044 48 40V66C48 66.7956 47.6839 67.5587 47.1213 68.1213C46.5587 68.6839 45.7957 69 45 69H3C2.20435 69 1.44129 68.6839 0.87868 68.1213C0.31607 67.5587 0 66.7956 0 66L0 40C0 39.2044 0.31607 38.4413 0.87868 37.8787C1.44129 37.3161 2.20435 37 3 37Z" fill="#F8F8F8"/>
<path d="M56 37H98C98.7957 37 99.5587 37.3161 100.121 37.8787C100.684 38.4413 101 39.2044 101 40V66C101 66.7956 100.684 67.5587 100.121 68.1213C99.5587 68.6839 98.7957 69 98 69H56C55.2044 69 54.4413 68.6839 53.8787 68.1213C53.3161 67.5587 53 66.7956 53 66V40C53 39.2044 53.3161 38.4413 53.8787 37.8787C54.4413 37.3161 55.2044 37 56 37Z" fill="#F8F8F8"/>
<path d="M56 0H98C98.7957 0 99.5587 0.31607 100.121 0.87868C100.684 1.44129 101 2.20435 101 3V29C101 29.7956 100.684 30.5587 100.121 31.1213C99.5587 31.6839 98.7957 32 98 32H56C55.2044 32 54.4413 31.6839 53.8787 31.1213C53.3161 30.5587 53 29.7956 53 29V3C53 2.20435 53.3161 1.44129 53.8787 0.87868C54.4413 0.31607 55.2044 0 56 0" fill="#F8F8F8"/>
<path d="M3 0H45C45.7957 0 46.5587 0.31607 47.1213 0.87868C47.6839 1.44129 48 2.20435 48 3V29C48 29.7956 47.6839 30.5587 47.1213 31.1213C46.5587 31.6839 45.7957 32 45 32H3C2.20435 32 1.44129 31.6839 0.87868 31.1213C0.31607 30.5587 0 29.7956 0 29L0 3C0 2.20435 0.31607 1.44129 0.87868 0.87868C1.44129 0.31607 2.20435 0 3 0" fill="#F8F8F8"/>
<path d="M15.32 19.835C14.8999 19.673 14.5318 19.4 14.255 19.045C13.9811 18.6844 13.8351 18.2428 13.84 17.79C13.8393 17.7326 13.8608 17.6771 13.9 17.635C13.919 17.6142 13.9422 17.5977 13.968 17.5865C13.9939 17.5753 14.0218 17.5697 14.05 17.57H15.48C15.5586 17.5658 15.6363 17.5887 15.7 17.635C15.7624 17.6932 15.8074 17.7677 15.83 17.85C15.877 18.0239 15.9694 18.1821 16.0977 18.3084C16.226 18.4348 16.3857 18.5247 16.5603 18.569C16.7348 18.6133 16.918 18.6103 17.0911 18.5604C17.2641 18.5105 17.4208 18.4154 17.545 18.285C17.7321 18.0181 17.8221 17.6952 17.8 17.37V14.55H14.59C14.5241 14.5485 14.4614 14.5216 14.4149 14.4751C14.3683 14.4285 14.3415 14.3658 14.34 14.3V13.25C14.3389 13.2164 14.3451 13.1829 14.358 13.1519C14.3709 13.1208 14.3904 13.0929 14.415 13.07C14.4381 13.0474 14.4655 13.0296 14.4955 13.0176C14.5255 13.0056 14.5576 12.9996 14.59 13H19.48C19.5143 12.9995 19.5483 13.0058 19.5801 13.0187C19.6119 13.0316 19.6408 13.0507 19.665 13.075C19.6893 13.0992 19.7084 13.1281 19.7213 13.1599C19.7341 13.1917 19.7405 13.2257 19.74 13.26V17.43C19.7547 17.9407 19.6247 18.4451 19.365 18.885C19.1155 19.2879 18.7492 19.6053 18.315 19.795C17.8243 20.0063 17.2941 20.1103 16.76 20.1C16.2674 20.1053 15.7784 20.0153 15.32 19.835Z" fill="#5482DB"/>
<path d="M21.1152 19.925C21.0911 19.9027 21.0719 19.8756 21.0588 19.8455C21.0458 19.8153 21.0391 19.7828 21.0392 19.75V13.26C21.0374 13.1914 21.0629 13.1248 21.1102 13.075C21.1328 13.0503 21.1605 13.0307 21.1914 13.0178C21.2223 13.0048 21.2557 12.9988 21.2892 13H24.1192C24.8469 12.9574 25.5673 13.1657 26.1602 13.59C26.4107 13.8 26.6081 14.0661 26.7365 14.3666C26.8649 14.6672 26.9206 14.9939 26.8992 15.32C26.9215 15.6419 26.8659 15.9644 26.7373 16.2603C26.6087 16.5562 26.4107 16.8168 26.1602 17.02C25.5604 17.4275 24.8431 17.626 24.1192 17.585H22.9792V19.745C22.9797 19.8101 22.955 19.8728 22.9102 19.92C22.8868 19.9443 22.8587 19.9636 22.8275 19.9765C22.7964 19.9894 22.7629 19.9957 22.7292 19.995H21.2892C21.2566 19.995 21.2243 19.9884 21.1944 19.9755C21.1645 19.9626 21.1375 19.9437 21.1152 19.92M24.0692 16.155C24.3041 16.1688 24.5353 16.0918 24.7152 15.94C24.7974 15.8569 24.8608 15.7571 24.9012 15.6474C24.9416 15.5377 24.9579 15.4206 24.9492 15.304C24.9597 15.0748 24.8833 14.8502 24.7352 14.675C24.6479 14.5895 24.5433 14.5238 24.4283 14.4824C24.3134 14.441 24.1909 14.4248 24.0692 14.435H22.9492V16.155H24.0692Z" fill="#5482DB"/>
<path d="M28.4894 19.394C28.2093 19.1394 27.9867 18.828 27.8367 18.4805C27.6866 18.133 27.6126 17.7574 27.6194 17.379C27.6134 17.193 27.6094 16.889 27.6094 16.469C27.6094 16.049 27.6094 15.743 27.6194 15.549C27.6123 15.1788 27.6871 14.8116 27.8384 14.4737C27.9896 14.1358 28.2136 13.8354 28.4944 13.594C29.1432 13.1013 29.946 12.8554 30.7594 12.9C31.333 12.8875 31.903 12.9927 32.4344 13.209C32.8597 13.3789 33.2348 13.6542 33.5244 14.009C33.7597 14.2899 33.8998 14.6383 33.9244 15.004C33.9246 15.033 33.9189 15.0618 33.9078 15.0886C33.8966 15.1154 33.8801 15.1397 33.8594 15.16C33.8393 15.1807 33.8152 15.1971 33.7885 15.2081C33.7618 15.2191 33.7332 15.2245 33.7044 15.224H32.1544C32.1005 15.2269 32.0468 15.2148 31.9994 15.189C31.9601 15.1622 31.9262 15.1283 31.8994 15.089C31.8132 14.8929 31.6752 14.7238 31.5004 14.6C31.2803 14.4544 31.0188 14.3842 30.7554 14.4C30.5932 14.3811 30.4289 14.3991 30.2747 14.4528C30.1205 14.5064 29.9804 14.5942 29.865 14.7096C29.7496 14.8251 29.6618 14.9651 29.6081 15.1193C29.5545 15.2735 29.5365 15.4378 29.5554 15.6C29.5484 15.788 29.5454 16.074 29.5454 16.46C29.5454 16.846 29.5454 17.137 29.5554 17.331C29.5854 18.177 29.9934 18.6 30.7794 18.6C31.1111 18.6183 31.4381 18.5153 31.6994 18.31C31.8184 18.1982 31.9108 18.0611 31.9696 17.9087C32.0285 17.7564 32.0523 17.5928 32.0394 17.43V17.25H31.1494C31.1152 17.2505 31.0812 17.2442 31.0495 17.2314C31.0178 17.2186 30.9889 17.1995 30.9647 17.1754C30.9404 17.1513 30.9213 17.1225 30.9084 17.0908C30.8954 17.0592 30.889 17.0252 30.8894 16.991V16.21C30.889 16.1758 30.8954 16.1418 30.9084 16.1102C30.9213 16.0785 30.9404 16.0497 30.9647 16.0256C30.9889 16.0015 31.0178 15.9824 31.0495 15.9696C31.0812 15.9568 31.1152 15.9505 31.1494 15.951H33.6894C33.7236 15.9505 33.7576 15.9568 33.7893 15.9696C33.821 15.9824 33.8498 16.0015 33.8741 16.0256C33.8983 16.0497 33.9175 16.0785 33.9304 16.1102C33.9433 16.1418 33.9498 16.1758 33.9494 16.21V17.37C33.9619 17.8866 33.8229 18.3956 33.5494 18.834C33.2789 19.251 32.8909 19.5784 32.4344 19.775C31.9039 20.0016 31.3311 20.112 30.7544 20.099C29.9372 20.1479 29.1301 19.8972 28.4844 19.394" fill="#5482DB"/>
<path d="M15.4782 56.82C15.0749 56.6698 14.7192 56.4142 14.4482 56.08C14.2221 55.7942 14.0925 55.4441 14.0782 55.08C14.0777 55.0517 14.0832 55.0235 14.0944 54.9975C14.1056 54.9715 14.1222 54.9481 14.1432 54.929C14.1851 54.8898 14.2408 54.8686 14.2982 54.87H15.6282C15.6955 54.8671 15.7624 54.8809 15.8232 54.91C15.8856 54.9466 15.9414 54.9937 15.9882 55.049C16.0816 55.2188 16.2223 55.3577 16.3932 55.449C16.6209 55.5624 16.874 55.6154 17.1282 55.603C17.4143 55.6194 17.7 55.5626 17.9582 55.438C18.0448 55.3979 18.1181 55.3338 18.1695 55.2534C18.2209 55.1729 18.2482 55.0795 18.2482 54.984C18.2499 54.9189 18.2374 54.8541 18.2115 54.7944C18.1856 54.7346 18.1469 54.6812 18.0982 54.638C17.9556 54.527 17.7925 54.4454 17.6182 54.398C17.3982 54.3313 17.0815 54.2533 16.6682 54.164C16.015 54.0688 15.3942 53.8181 14.8582 53.433C14.6562 53.2624 14.4967 53.047 14.3926 52.804C14.2884 52.5609 14.2424 52.2969 14.2582 52.033C14.2528 51.6371 14.3736 51.2497 14.6032 50.927C14.8523 50.5884 15.192 50.3271 15.5832 50.173C16.0516 49.9845 16.5533 49.8926 17.0582 49.903C17.5828 49.8904 18.1037 49.9946 18.5832 50.208C18.9697 50.3776 19.3094 50.6384 19.5732 50.968C19.7844 51.2234 19.9118 51.5376 19.9382 51.868C19.9391 51.9252 19.9176 51.9805 19.8782 52.022C19.8595 52.0433 19.8364 52.0602 19.8105 52.0716C19.7846 52.083 19.7565 52.0886 19.7282 52.088H18.3282C18.2607 52.0903 18.1938 52.0748 18.1342 52.0432C18.0746 52.0117 18.0242 51.965 17.9882 51.908C17.9624 51.8314 17.9217 51.7605 17.8685 51.6996C17.8153 51.6387 17.7506 51.5889 17.6782 51.553C17.488 51.4506 17.274 51.4005 17.0582 51.408C16.8318 51.3953 16.6064 51.4469 16.4082 51.557C16.3342 51.6036 16.274 51.669 16.2336 51.7464C16.1932 51.8239 16.1741 51.9107 16.1782 51.998C16.1788 52.0947 16.2075 52.1892 16.2607 52.27C16.314 52.3507 16.3895 52.4143 16.4782 52.453C16.8356 52.6122 17.212 52.7248 17.5982 52.788C18.1119 52.8682 18.614 53.0109 19.0932 53.213C19.4238 53.3504 19.7082 53.5794 19.9132 53.873C20.1 54.181 20.1921 54.5371 20.1782 54.897C20.1871 55.3237 20.0495 55.7406 19.7882 56.078C19.5053 56.4274 19.1316 56.6921 18.7082 56.843C18.2021 57.0269 17.6665 57.1164 17.1282 57.107C16.5652 57.1223 16.0048 57.0275 15.4782 56.828" fill="#E89296"/>
<path d="M22.6264 56.915C22.5574 56.8597 22.5069 56.7847 22.4814 56.7L20.4614 50.3L20.4414 50.21C20.4418 50.1827 20.4477 50.1557 20.4589 50.1308C20.4701 50.1058 20.4862 50.0835 20.5064 50.065C20.5263 50.044 20.5504 50.0274 20.5771 50.0162C20.6038 50.0051 20.6325 49.9995 20.6614 50H21.9714C22.0609 49.996 22.1486 50.0264 22.2164 50.085C22.2742 50.1337 22.3174 50.1974 22.3414 50.269L23.7014 54.79L25.0714 50.269C25.0928 50.1947 25.1364 50.1287 25.1964 50.08C25.2655 50.0243 25.3527 49.9958 25.4414 50H26.7514C26.7796 49.9992 26.8077 50.0046 26.8336 50.0158C26.8595 50.0271 26.8827 50.0439 26.9014 50.065C26.9397 50.1036 26.9612 50.1557 26.9614 50.21C26.9619 50.2403 26.9585 50.2706 26.9514 50.3L24.9214 56.7C24.9025 56.7851 24.8548 56.861 24.7864 56.915C24.7076 56.9749 24.6102 57.005 24.5114 57H22.9014C22.8026 57.0048 22.7053 56.9747 22.6264 56.915Z" fill="#E89296"/>
<path d="M28.3097 56.394C28.0296 56.1394 27.807 55.828 27.657 55.4805C27.507 55.133 27.4329 54.7574 27.4397 54.379C27.4337 54.193 27.4297 53.889 27.4297 53.469C27.4297 53.049 27.4297 52.743 27.4397 52.549C27.4326 52.1788 27.5074 51.8116 27.6587 51.4737C27.8099 51.1358 28.0339 50.8354 28.3147 50.594C28.9635 50.1013 29.7663 49.8554 30.5797 49.9C31.1533 49.8875 31.7233 49.9927 32.2547 50.209C32.68 50.3789 33.0551 50.6542 33.3447 51.009C33.58 51.2899 33.7201 51.6383 33.7447 52.004C33.7449 52.033 33.7392 52.0618 33.7281 52.0886C33.7169 52.1154 33.7005 52.1397 33.6797 52.16C33.6596 52.1807 33.6355 52.1971 33.6088 52.2081C33.5822 52.2191 33.5535 52.2245 33.5247 52.224H31.9697C31.9158 52.2269 31.8621 52.2148 31.8147 52.189C31.7736 52.1627 31.738 52.1287 31.7097 52.089C31.6261 51.8975 31.4933 51.7315 31.3247 51.608C31.1046 51.4624 30.8431 51.3922 30.5797 51.408C30.4175 51.3891 30.2532 51.4071 30.099 51.4608C29.9448 51.5144 29.8048 51.6022 29.6893 51.7176C29.5739 51.8331 29.4861 51.9731 29.4324 52.1273C29.3788 52.2815 29.3608 52.4458 29.3797 52.608C29.3727 52.796 29.3697 53.082 29.3697 53.468C29.3697 53.854 29.3697 54.145 29.3797 54.339C29.4064 55.1797 29.813 55.6 30.5997 55.6C30.9314 55.6183 31.2584 55.5153 31.5197 55.31C31.6387 55.1982 31.7311 55.0611 31.7899 54.9087C31.8488 54.7564 31.8726 54.5928 31.8597 54.43V54.25H30.9697C30.9355 54.2505 30.9015 54.2442 30.8698 54.2314C30.8381 54.2186 30.8092 54.1995 30.785 54.1754C30.7608 54.1513 30.7416 54.1225 30.7287 54.0908C30.7157 54.0592 30.7093 54.0252 30.7097 53.991V53.21C30.7093 53.1758 30.7157 53.1418 30.7287 53.1102C30.7416 53.0785 30.7608 53.0497 30.785 53.0256C30.8092 53.0015 30.8381 52.9824 30.8698 52.9696C30.9015 52.9568 30.9355 52.9505 30.9697 52.951H33.5097C33.5439 52.9505 33.5779 52.9568 33.6096 52.9696C33.6413 52.9824 33.6701 53.0015 33.6944 53.0256C33.7186 53.0497 33.7378 53.0785 33.7507 53.1102C33.7636 53.1418 33.7701 53.1758 33.7697 53.21V54.37C33.7822 54.8866 33.6432 55.3956 33.3697 55.834C33.0992 56.2509 32.7112 56.5784 32.2547 56.775C31.7242 57.0016 31.1514 57.112 30.5747 57.099C29.7581 57.1493 28.9511 56.9005 28.3047 56.399" fill="#E89296"/>
<path d="M67.1415 19.925C67.1178 19.9025 67.0989 19.8753 67.086 19.8452C67.0731 19.8151 67.0665 19.7827 67.0665 19.75V13.26C67.0655 13.2261 67.0711 13.1923 67.0831 13.1605C67.0951 13.1288 67.1133 13.0997 67.1365 13.075C67.1593 13.0502 67.1872 13.0307 67.2183 13.0178C67.2494 13.0048 67.2829 12.9988 67.3165 13H70.1465C70.874 12.9574 71.5941 13.1657 72.1865 13.59C72.4372 13.7999 72.6348 14.066 72.7633 14.3665C72.8919 14.6671 72.9478 14.9938 72.9265 15.32C72.9486 15.642 72.8929 15.9645 72.7641 16.2604C72.6353 16.5563 72.4372 16.8168 72.1865 17.02C71.5873 17.4278 70.8702 17.6264 70.1465 17.585H69.0015V19.745C69.0021 19.8103 68.977 19.8732 68.9315 19.92C68.9084 19.9444 68.8805 19.9637 68.8495 19.9766C68.8185 19.9895 68.7851 19.9958 68.7515 19.995H67.3115C67.2788 19.9949 67.2465 19.9883 67.2164 19.9754C67.1863 19.9625 67.1592 19.9436 67.1365 19.92M70.1015 16.16C70.3361 16.1736 70.567 16.0967 70.7465 15.945C70.829 15.862 70.8926 15.7623 70.9331 15.6525C70.9737 15.5428 70.9902 15.4257 70.9815 15.309C70.9919 15.0797 70.915 14.855 70.7665 14.68C70.6796 14.5944 70.5751 14.5286 70.4603 14.4872C70.3455 14.4458 70.2231 14.4297 70.1015 14.44H68.9815V16.16H70.1015Z" fill="#F6B18A"/>
<path d="M73.9306 19.925C73.9067 19.9025 73.8878 19.8754 73.8749 19.8453C73.862 19.8152 73.8554 19.7828 73.8556 19.75V13.26C73.8536 13.1915 73.8788 13.125 73.9256 13.075C73.9487 13.0506 73.9766 13.0313 74.0076 13.0184C74.0386 13.0055 74.072 12.9992 74.1056 13H75.2356C75.3045 12.9966 75.373 13.0127 75.4331 13.0464C75.4933 13.0802 75.5427 13.1304 75.5756 13.191L77.9356 16.92V13.26C77.9336 13.1915 77.9588 13.125 78.0056 13.075C78.0287 13.0506 78.0566 13.0313 78.0876 13.0184C78.1186 13.0055 78.152 12.9992 78.1856 13H79.4556C79.4892 12.9991 79.5226 13.0053 79.5536 13.0182C79.5846 13.0311 79.6126 13.0505 79.6356 13.075C79.6824 13.125 79.7075 13.1915 79.7056 13.26V19.74C79.7066 19.7739 79.701 19.8077 79.689 19.8395C79.677 19.8712 79.6588 19.9003 79.6356 19.925C79.6127 19.9497 79.5848 19.9691 79.5537 19.9821C79.5227 19.995 79.4892 20.0011 79.4556 20H78.3266C78.2576 20.0037 78.189 19.9879 78.1286 19.9543C78.0683 19.9206 78.0187 19.8706 77.9856 19.81L75.6356 16.231V19.75C75.6367 19.7836 75.6306 19.8171 75.6176 19.8481C75.6047 19.8792 75.5852 19.9071 75.5606 19.93C75.5359 19.9533 75.5068 19.9714 75.475 19.9834C75.4433 19.9954 75.4095 20.0011 75.3756 20H74.1056C74.0728 20.0002 74.0404 19.9936 74.0103 19.9807C73.9802 19.9678 73.953 19.9488 73.9306 19.925Z" fill="#F6B18A"/>
<path d="M81.7237 19.394C81.4436 19.1395 81.2211 18.828 81.0712 18.4805C80.9214 18.133 80.8475 17.7574 80.8548 17.379C80.8478 17.193 80.8438 16.889 80.8438 16.469C80.8438 16.049 80.8438 15.743 80.8548 15.549C80.8472 15.1787 80.9218 14.8114 81.0731 14.4734C81.2243 14.1354 81.4486 13.835 81.7298 13.594C82.3795 13.1002 83.1839 12.8541 83.9987 12.9C84.572 12.8874 85.1418 12.9926 85.6728 13.209C86.0981 13.3789 86.4731 13.6542 86.7627 14.009C86.9976 14.2902 87.1376 14.6385 87.1628 15.004C87.1628 15.0331 87.1569 15.0619 87.1456 15.0887C87.1343 15.1155 87.1176 15.1397 87.0967 15.16C87.0767 15.1807 87.0526 15.1971 87.0259 15.2081C86.9992 15.2191 86.9706 15.2245 86.9417 15.224H85.3917C85.3382 15.2269 85.2848 15.2148 85.2377 15.189C85.1964 15.1627 85.1604 15.1288 85.1318 15.089C85.0482 14.8977 84.9158 14.7318 84.7477 14.608C84.5275 14.4587 84.2644 14.3857 83.9987 14.4C83.8366 14.3813 83.6724 14.3995 83.5183 14.4531C83.3642 14.5068 83.2242 14.5947 83.1088 14.7101C82.9934 14.8254 82.9056 14.9654 82.8519 15.1195C82.7982 15.2736 82.78 15.4379 82.7988 15.6C82.7918 15.788 82.7897 16.074 82.7897 16.46C82.7897 16.846 82.7898 17.137 82.7988 17.331C82.8261 18.177 83.2327 18.6 84.0187 18.6C84.3505 18.6183 84.6775 18.5152 84.9388 18.31C85.0579 18.1982 85.1504 18.0611 85.2094 17.9088C85.2685 17.7565 85.2925 17.5929 85.2797 17.43V17.25H84.3887C84.3546 17.2503 84.3208 17.2437 84.2892 17.2308C84.2576 17.2179 84.2288 17.1989 84.2047 17.1748C84.1805 17.1507 84.1613 17.122 84.1483 17.0905C84.1353 17.0589 84.1286 17.0251 84.1287 16.991V16.21C84.1282 16.1758 84.1347 16.1418 84.1477 16.1101C84.1608 16.0785 84.1802 16.0499 84.2048 16.026C84.2284 16.0013 84.2571 15.9818 84.2888 15.9689C84.3205 15.956 84.3545 15.9499 84.3887 15.951H86.9287C86.9632 15.9501 86.9975 15.9563 87.0295 15.9692C87.0615 15.9821 87.0905 16.0014 87.1147 16.026C87.139 16.05 87.1581 16.0787 87.1709 16.1103C87.1836 16.142 87.1897 16.1759 87.1888 16.21V17.37C87.2028 17.8861 87.0655 18.395 86.7937 18.834C86.5235 19.2511 86.1354 19.5786 85.6787 19.775C85.1484 20.002 84.5755 20.1129 83.9987 20.1C83.1812 20.1489 82.3738 19.8983 81.7277 19.395" fill="#F6B18A"/>
<path d="M67.8212 56.925C67.7974 56.9025 67.7784 56.8754 67.7655 56.8453C67.7526 56.8152 67.746 56.7827 67.7462 56.75V50.26C67.7442 50.1915 67.7694 50.125 67.8162 50.075C67.8398 50.0499 67.8686 50.0303 67.9005 50.0173C67.9324 50.0044 67.9668 49.9985 68.0012 50H72.7212C72.7555 49.9995 72.7895 50.0058 72.8213 50.0187C72.8531 50.0316 72.882 50.0507 72.9062 50.075C72.9306 50.0991 72.9499 50.1279 72.9628 50.1597C72.9757 50.1916 72.982 50.2257 72.9812 50.26V51.25C72.9823 51.2836 72.9762 51.3171 72.9632 51.3481C72.9503 51.3792 72.9309 51.4071 72.9062 51.43C72.8562 51.4768 72.7897 51.5019 72.7212 51.5H69.5612V52.77H72.5012C72.5355 52.7694 72.5695 52.7758 72.6013 52.7887C72.6331 52.8016 72.662 52.8207 72.6862 52.8449C72.7105 52.8692 72.7296 52.8981 72.7425 52.9299C72.7554 52.9616 72.7617 52.9957 72.7612 53.03V53.941C72.7616 53.9752 72.7551 54.0091 72.7422 54.0408C72.7293 54.0725 72.7101 54.1012 72.6859 54.1254C72.6616 54.1495 72.6328 54.1686 72.6011 54.1814C72.5694 54.1942 72.5354 54.2005 72.5012 54.2H69.5612V55.5H72.8012C72.8355 55.4995 72.8695 55.5058 72.9013 55.5187C72.9331 55.5316 72.962 55.5507 72.9862 55.575C73.0106 55.5991 73.0299 55.6279 73.0428 55.6597C73.0557 55.6916 73.062 55.7257 73.0612 55.76V56.75C73.0623 56.7836 73.0562 56.8171 73.0432 56.8481C73.0303 56.8792 73.0109 56.9071 72.9862 56.93C72.9362 56.9768 72.8697 57.0019 72.8012 57H68.0012C67.9684 57.0001 67.936 56.9936 67.9059 56.9807C67.8758 56.9678 67.8487 56.9488 67.8262 56.925" fill="#A5A9FB"/>
<path d="M74.2392 56.925C74.2155 56.9025 74.1966 56.8753 74.1837 56.8452C74.1708 56.8151 74.1642 56.7827 74.1642 56.75V50.26C74.1631 50.2261 74.1687 50.1923 74.1808 50.1605C74.1928 50.1288 74.2109 50.0997 74.2342 50.075C74.257 50.0503 74.2849 50.0307 74.316 50.0178C74.347 50.0048 74.3806 49.9988 74.4142 50H77.2442C77.9714 49.9574 78.6911 50.1657 79.2832 50.59C79.5341 50.7997 79.732 51.0657 79.8608 51.3663C79.9895 51.6669 80.0455 51.9937 80.0242 52.32C80.0472 52.6429 79.9918 52.9665 79.8628 53.2634C79.7338 53.5602 79.5349 53.8215 79.2832 54.025C78.6843 54.4328 77.9675 54.6314 77.2442 54.59H76.1042V56.75C76.1048 56.8153 76.0796 56.8782 76.0342 56.925C76.0111 56.9494 75.9832 56.9687 75.9521 56.9816C75.9211 56.9945 75.8878 57.0008 75.8542 57H74.4142C74.3815 56.9999 74.3491 56.9933 74.319 56.9804C74.289 56.9675 74.2618 56.9486 74.2392 56.925ZM77.1942 53.16C77.4288 53.1736 77.6597 53.0967 77.8392 52.945C77.9216 52.862 77.9852 52.7623 78.0258 52.6525C78.0663 52.5428 78.0828 52.4257 78.0742 52.309C78.0845 52.0797 78.0077 51.855 77.8592 51.68C77.7722 51.5944 77.6677 51.5286 77.553 51.4872C77.4382 51.4458 77.3158 51.4297 77.1942 51.44H76.0742V53.16H77.1942Z" fill="#A5A9FB"/>
<path d="M81.9548 56.82C81.5515 56.6697 81.1959 56.4142 80.9248 56.08C80.6987 55.7942 80.5691 55.4441 80.5548 55.08C80.5539 55.0516 80.5593 55.0234 80.5705 54.9973C80.5817 54.9712 80.5986 54.9479 80.6198 54.929C80.6615 54.89 80.7167 54.8688 80.7738 54.87H82.0998C82.1687 54.8664 82.2375 54.8802 82.2998 54.91C82.3621 54.9469 82.4178 54.9939 82.4648 55.049C82.5582 55.2187 82.6989 55.3577 82.8698 55.449C83.0973 55.5622 83.35 55.6153 83.6038 55.603C83.89 55.6194 84.1756 55.5627 84.4338 55.438C84.5206 55.398 84.5942 55.334 84.6457 55.2536C84.6973 55.1731 84.7247 55.0796 84.7248 54.984C84.7266 54.9188 84.7141 54.8539 84.688 54.7941C84.6619 54.7343 84.6229 54.681 84.5738 54.638C84.4316 54.527 84.2688 54.4454 84.0948 54.398C83.8748 54.3313 83.5578 54.2533 83.1438 54.164C82.4909 54.0688 81.8705 53.8181 81.3348 53.433C81.1328 53.2624 80.9734 53.047 80.8692 52.8039C80.7651 52.5609 80.719 52.2969 80.7348 52.033C80.7297 51.6369 80.8509 51.2496 81.0808 50.927C81.3296 50.5885 81.6689 50.3271 82.0598 50.173C82.5283 49.9846 83.03 49.8928 83.5348 49.903C84.0595 49.8903 84.5804 49.9944 85.0598 50.208C85.4465 50.3778 85.7865 50.6386 86.0508 50.968C86.2616 51.2236 86.389 51.5377 86.4158 51.868C86.4164 51.9253 86.3945 51.9806 86.3548 52.022C86.3363 52.0432 86.3134 52.0602 86.2876 52.0716C86.2619 52.083 86.2339 52.0886 86.2058 52.088H84.8058C84.7383 52.0902 84.6715 52.0748 84.6118 52.0432C84.5522 52.0117 84.5018 51.965 84.4658 51.908C84.44 51.8312 84.3992 51.7603 84.3458 51.6994C84.2924 51.6384 84.2275 51.5887 84.1548 51.553C83.9647 51.4503 83.7507 51.4003 83.5348 51.408C83.3087 51.3951 83.0836 51.4468 82.8858 51.557C82.8121 51.6039 82.752 51.6693 82.7115 51.7467C82.671 51.8241 82.6514 51.9107 82.6548 51.998C82.656 52.0946 82.685 52.1888 82.7381 52.2694C82.7913 52.3501 82.8665 52.4138 82.9548 52.453C83.3119 52.6122 83.6879 52.7248 84.0738 52.788C84.5893 52.8678 85.093 53.0105 85.5738 53.213C85.9047 53.3504 86.1895 53.5794 86.3948 53.873C86.5812 54.1811 86.673 54.5372 86.6588 54.897C86.6676 55.3235 86.5304 55.7402 86.2698 56.078C85.9865 56.4274 85.6125 56.6921 85.1888 56.843C84.6827 57.0271 84.1472 57.1165 83.6088 57.107C83.0462 57.1222 82.4861 57.0274 81.9598 56.828" fill="#A5A9FB"/>
</svg>
