<svg width="64" height="73" viewBox="0 0 64 73" fill="none" xmlns="http://www.w3.org/2000/svg">
<path d="M63.1495 11.85L56.4495 66.44C56.2555 68.0193 55.4422 69.4569 54.1883 70.4366C52.9345 71.4163 51.3428 71.8578 49.7635 71.664L8.07347 66.546C7.29137 66.45 6.53585 66.2008 5.85004 65.8128C5.16423 65.4248 4.56157 64.9054 4.07647 64.2845C3.59137 63.6635 3.23333 62.9531 3.0228 62.1938C2.81227 61.4344 2.75338 60.6411 2.84947 59.859L9.54947 5.269C9.64549 4.48671 9.8947 3.731 10.2829 3.04505C10.671 2.35909 11.1905 1.75634 11.8117 1.27121C12.4329 0.786088 13.1435 0.428101 13.9031 0.217703C14.6627 0.00730556 15.4562 -0.0513806 16.2385 0.0449975L57.9255 5.164C59.5048 5.35795 60.9424 6.1713 61.9221 7.42515C62.9018 8.679 63.3433 10.2706 63.1495 11.85Z" fill="#E6E6E6"/>
<path d="M54 11.4V66.4C54 67.9913 53.3679 69.5174 52.2426 70.6426C51.1174 71.7679 49.5913 72.4 48 72.4H6C4.4087 72.4 2.88258 71.7679 1.75736 70.6426C0.632141 69.5174 0 67.9913 0 66.4L0 11.4C0 9.80869 0.632141 8.28257 1.75736 7.15735C2.88258 6.03213 4.4087 5.39999 6 5.39999H48C49.5913 5.39999 51.1174 6.03213 52.2426 7.15735C53.3679 8.28257 54 9.80869 54 11.4Z" fill="#F8F8F8"/>
<path d="M14.6804 22.332C14.6583 22.3116 14.6409 22.2866 14.6293 22.2588C14.6178 22.231 14.6123 22.2011 14.6134 22.171V16.329C14.6129 16.2982 14.6186 16.2676 14.6301 16.239C14.6417 16.2104 14.6589 16.1844 14.6808 16.1627C14.7027 16.1409 14.7287 16.1238 14.7573 16.1123C14.7859 16.1009 14.8166 16.0953 14.8474 16.096H15.8644C15.9323 16.0928 15.9995 16.1102 16.0574 16.1459C16.1152 16.1816 16.1609 16.2339 16.1884 16.296L17.7364 19.067L19.2924 16.296C19.3199 16.2336 19.3657 16.1811 19.4238 16.1454C19.4818 16.1097 19.5494 16.0924 19.6174 16.096H20.6334C20.6642 16.0953 20.6949 16.1009 20.7235 16.1123C20.7522 16.1238 20.7782 16.1409 20.8 16.1627C20.8219 16.1844 20.8391 16.2104 20.8507 16.239C20.8623 16.2676 20.868 16.2982 20.8674 16.329V22.171C20.8685 22.2011 20.8631 22.231 20.8515 22.2588C20.8399 22.2866 20.8225 22.3116 20.8004 22.332C20.7782 22.3531 20.752 22.3695 20.7233 22.3804C20.6946 22.3912 20.664 22.3962 20.6334 22.395H19.4914C19.4322 22.394 19.3757 22.3701 19.3338 22.3283C19.2918 22.2866 19.2677 22.2302 19.2664 22.171V18.894L18.2934 20.677C18.2659 20.7376 18.2218 20.7892 18.1663 20.8258C18.1107 20.8624 18.0459 20.8826 17.9794 20.884H17.4934C17.4274 20.8797 17.3636 20.8583 17.3082 20.8221C17.2528 20.7858 17.2078 20.7358 17.1774 20.677L16.2144 18.894V22.171C16.2155 22.2011 16.2101 22.231 16.1985 22.2588C16.1869 22.2866 16.1695 22.3116 16.1474 22.332C16.1253 22.3529 16.0992 22.3693 16.0707 22.3801C16.0422 22.3909 16.0119 22.396 15.9814 22.395H14.8474C14.8168 22.3961 14.7863 22.391 14.7576 22.3802C14.729 22.3694 14.7027 22.353 14.6804 22.332Z" fill="#5482DB"/>
<path d="M22.1579 22.328C22.1363 22.3079 22.1192 22.2836 22.1075 22.2566C22.0958 22.2296 22.0898 22.2004 22.0899 22.171V16.329C22.0884 16.2676 22.111 16.208 22.1529 16.163C22.1735 16.1409 22.1987 16.1234 22.2266 16.1119C22.2546 16.1003 22.2847 16.0949 22.3149 16.096H26.5629C26.5937 16.0952 26.6243 16.1007 26.6529 16.1123C26.6814 16.1238 26.7073 16.1411 26.7289 16.163C26.7509 16.1846 26.7683 16.2105 26.78 16.239C26.7917 16.2675 26.7975 16.2982 26.7969 16.329V17.221C26.7977 17.2513 26.792 17.2814 26.7803 17.3093C26.7686 17.3372 26.7511 17.3623 26.7289 17.383C26.6839 17.4247 26.6243 17.447 26.5629 17.445H23.7199V18.589H26.3649C26.3957 18.5883 26.4264 18.5939 26.455 18.6053C26.4837 18.6168 26.5097 18.6339 26.5315 18.6557C26.5534 18.6774 26.5706 18.7034 26.5822 18.732C26.5938 18.7605 26.5995 18.7912 26.5989 18.822V19.641C26.5999 19.6718 26.5944 19.7025 26.5829 19.731C26.5714 19.7596 26.554 19.7855 26.5319 19.807C26.5102 19.8292 26.4842 19.8467 26.4555 19.8586C26.4268 19.8704 26.396 19.8764 26.3649 19.876H23.7199V21.046H26.6359C26.6667 21.0453 26.6973 21.0508 26.7258 21.0624C26.7544 21.0739 26.7803 21.0911 26.8019 21.113C26.8236 21.1348 26.8407 21.1607 26.8522 21.1892C26.8637 21.2177 26.8694 21.2483 26.8689 21.279V22.171C26.8697 22.201 26.8642 22.2309 26.8526 22.2587C26.8411 22.2864 26.8238 22.3114 26.8019 22.332C26.7798 22.3529 26.7537 22.3693 26.7252 22.3801C26.6967 22.3909 26.6664 22.396 26.6359 22.395H22.3149C22.2855 22.3952 22.2565 22.3894 22.2294 22.3778C22.2024 22.3663 22.1781 22.3493 22.1579 22.328Z" fill="#5482DB"/>
<path d="M27.9343 22.328C27.9131 22.3078 27.8962 22.2834 27.8846 22.2564C27.8731 22.2294 27.8672 22.2004 27.8673 22.171V16.329C27.8654 16.2677 27.8877 16.2081 27.9293 16.163C27.95 16.141 27.9752 16.1236 28.0031 16.1121C28.031 16.1005 28.0611 16.095 28.0913 16.096H29.1093C29.171 16.0927 29.2323 16.107 29.2863 16.137C29.3403 16.1671 29.3846 16.2118 29.4143 16.266L31.5383 19.623V16.329C31.5372 16.2674 31.5601 16.2079 31.6023 16.163C31.6227 16.1409 31.6477 16.1235 31.6755 16.1119C31.7033 16.1003 31.7332 16.0949 31.7633 16.096H32.9073C32.9375 16.095 32.9676 16.1005 32.9955 16.1121C33.0234 16.1236 33.0486 16.141 33.0693 16.163C33.1109 16.2081 33.1332 16.2677 33.1313 16.329V22.161C33.1333 22.2227 33.1111 22.2826 33.0693 22.328C33.0486 22.35 33.0234 22.3674 32.9955 22.3789C32.9676 22.3905 32.9375 22.396 32.9073 22.395H31.8893C31.8274 22.3982 31.7658 22.3839 31.7116 22.3537C31.6575 22.3234 31.613 22.2785 31.5833 22.224L29.4683 19V22.168C29.4694 22.1981 29.464 22.228 29.4524 22.2558C29.4408 22.2836 29.4234 22.3086 29.4013 22.329C29.3792 22.3499 29.3531 22.3663 29.3246 22.3771C29.2961 22.3879 29.2658 22.393 29.2353 22.392H28.0913C28.062 22.3921 28.0329 22.3862 28.0059 22.3747C27.9789 22.3632 27.9545 22.3463 27.9343 22.325" fill="#5482DB"/>
<path d="M35.0282 21.864C34.7752 21.6275 34.5784 21.3373 34.4522 21.0147C34.326 20.6922 34.2738 20.3454 34.2992 20V16.329C34.2976 16.2675 34.3203 16.2079 34.3622 16.163C34.3828 16.1407 34.4079 16.1232 34.4359 16.1114C34.4638 16.0997 34.494 16.0941 34.5242 16.095H35.7572C35.788 16.0947 35.8186 16.1006 35.8471 16.1123C35.8756 16.1239 35.9015 16.1412 35.9233 16.1629C35.9451 16.1847 35.9623 16.2106 35.974 16.2391C35.9856 16.2677 35.9915 16.2982 35.9912 16.329V19.983C35.9682 20.2858 36.0632 20.5857 36.2562 20.82C36.4683 21.0013 36.7382 21.101 37.0172 21.101C37.2963 21.101 37.5662 21.0013 37.7782 20.82C37.9702 20.5867 38.0651 20.2884 38.0432 19.987V16.329C38.043 16.2982 38.0488 16.2677 38.0605 16.2391C38.0722 16.2106 38.0894 16.1847 38.1112 16.1629C38.133 16.1412 38.1589 16.1239 38.1874 16.1123C38.2159 16.1006 38.2464 16.0947 38.2772 16.095H39.5012C39.5321 16.0946 39.5627 16.1004 39.5913 16.112C39.6198 16.1236 39.6458 16.1408 39.6676 16.1626C39.6894 16.1845 39.7066 16.2104 39.7183 16.239C39.7299 16.2676 39.7356 16.2982 39.7352 16.329V20C39.761 20.3444 39.7097 20.6901 39.5852 21.0122C39.4606 21.3342 39.2659 21.6245 39.0152 21.862C38.4284 22.2664 37.7325 22.4829 37.0197 22.4829C36.307 22.4829 35.6111 22.2664 35.0242 21.862" fill="#5482DB"/>
<path d="M19.5 29.4H35.5C35.8978 29.4 36.2794 29.558 36.5607 29.8393C36.842 30.1206 37 30.5022 37 30.9C37 31.2978 36.842 31.6794 36.5607 31.9607C36.2794 32.242 35.8978 32.4 35.5 32.4H19.5C19.1022 32.4 18.7206 32.242 18.4393 31.9607C18.158 31.6794 18 31.2978 18 30.9C18 30.5022 18.158 30.1206 18.4393 29.8393C18.7206 29.558 19.1022 29.4 19.5 29.4Z" fill="#E6E6E6"/>
<path d="M8.5 45.4H24.5C24.8978 45.4 25.2794 45.558 25.5607 45.8393C25.842 46.1206 26 46.5022 26 46.9C26 47.2978 25.842 47.6793 25.5607 47.9607C25.2794 48.242 24.8978 48.4 24.5 48.4H8.5C8.10218 48.4 7.72064 48.242 7.43934 47.9607C7.15804 47.6793 7 47.2978 7 46.9C7 46.5022 7.15804 46.1206 7.43934 45.8393C7.72064 45.558 8.10218 45.4 8.5 45.4Z" fill="#E6E6E6"/>
<path d="M8.5 51.4H24.5C24.8978 51.4 25.2794 51.558 25.5607 51.8393C25.842 52.1206 26 52.5022 26 52.9C26 53.2978 25.842 53.6793 25.5607 53.9607C25.2794 54.242 24.8978 54.4 24.5 54.4H8.5C8.10218 54.4 7.72064 54.242 7.43934 53.9607C7.15804 53.6793 7 53.2978 7 52.9C7 52.5022 7.15804 52.1206 7.43934 51.8393C7.72064 51.558 8.10218 51.4 8.5 51.4Z" fill="#E6E6E6"/>
<path d="M8.5 57.4H24.5C24.8978 57.4 25.2794 57.558 25.5607 57.8393C25.842 58.1206 26 58.5022 26 58.9C26 59.2978 25.842 59.6793 25.5607 59.9607C25.2794 60.242 24.8978 60.4 24.5 60.4H8.5C8.10218 60.4 7.72064 60.242 7.43934 59.9607C7.15804 59.6793 7 59.2978 7 58.9C7 58.5022 7.15804 58.1206 7.43934 57.8393C7.72064 57.558 8.10218 57.4 8.5 57.4Z" fill="#E6E6E6"/>
<path d="M29.5 45.4H45.5C45.8978 45.4 46.2794 45.558 46.5607 45.8393C46.842 46.1206 47 46.5022 47 46.9C47 47.2978 46.842 47.6793 46.5607 47.9607C46.2794 48.242 45.8978 48.4 45.5 48.4H29.5C29.1022 48.4 28.7206 48.242 28.4393 47.9607C28.158 47.6793 28 47.2978 28 46.9C28 46.5022 28.158 46.1206 28.4393 45.8393C28.7206 45.558 29.1022 45.4 29.5 45.4Z" fill="#E6E6E6"/>
<path d="M29.5 51.4H45.5C45.8978 51.4 46.2794 51.558 46.5607 51.8393C46.842 52.1206 47 52.5022 47 52.9C47 53.2978 46.842 53.6793 46.5607 53.9607C46.2794 54.242 45.8978 54.4 45.5 54.4H29.5C29.1022 54.4 28.7206 54.242 28.4393 53.9607C28.158 53.6793 28 53.2978 28 52.9C28 52.5022 28.158 52.1206 28.4393 51.8393C28.7206 51.558 29.1022 51.4 29.5 51.4Z" fill="#E6E6E6"/>
<path d="M29.5 57.4H45.5C45.8978 57.4 46.2794 57.558 46.5607 57.8393C46.842 58.1206 47 58.5022 47 58.9C47 59.2978 46.842 59.6793 46.5607 59.9607C46.2794 60.242 45.8978 60.4 45.5 60.4H29.5C29.1022 60.4 28.7206 60.242 28.4393 59.9607C28.158 59.6793 28 59.2978 28 58.9C28 58.5022 28.158 58.1206 28.4393 57.8393C28.7206 57.558 29.1022 57.4 29.5 57.4Z" fill="#E6E6E6"/>
<path d="M8.5 35.4H45.5C45.8978 35.4 46.2794 35.558 46.5607 35.8393C46.842 36.1206 47 36.5022 47 36.9C47 37.2978 46.842 37.6793 46.5607 37.9607C46.2794 38.242 45.8978 38.4 45.5 38.4H8.5C8.10218 38.4 7.72064 38.242 7.43934 37.9607C7.15804 37.6793 7 37.2978 7 36.9C7 36.5022 7.15804 36.1206 7.43934 35.8393C7.72064 35.558 8.10218 35.4 8.5 35.4Z" fill="#E6E6E6"/>
</svg>
