<svg width="101" height="69" viewBox="0 0 101 69" fill="none" xmlns="http://www.w3.org/2000/svg">
<path d="M10 0H91C92.3132 0 93.6136 0.258658 94.8268 0.761205C96.0401 1.26375 97.1425 2.00035 98.0711 2.92893C98.9997 3.85752 99.7362 4.95991 100.239 6.17317C100.741 7.38642 101 8.68678 101 10V52H0V10C0 7.34784 1.05357 4.8043 2.92893 2.92893C4.8043 1.05357 7.34784 0 10 0V0Z" fill="#F8F8F8"/>
<path d="M91 5H10C7.79086 5 6 6.79086 6 9V43C6 45.2091 7.79086 47 10 47H91C93.2091 47 95 45.2091 95 43V9C95 6.79086 93.2091 5 91 5Z" fill="white"/>
<path d="M10 5H16V47H10C8.93913 47 7.92172 46.5786 7.17157 45.8284C6.42143 45.0783 6 44.0609 6 43V9C6 7.93913 6.42143 6.92172 7.17157 6.17157C7.92172 5.42143 8.93913 5 10 5V5Z" fill="#5482DB"/>
<path d="M0 52H101C101 54.1217 100.157 56.1566 98.6569 57.6569C97.1566 59.1571 95.1217 60 93 60H8C5.87827 60 3.84344 59.1571 2.34315 57.6569C0.842855 56.1566 0 54.1217 0 52V52Z" fill="#E6E6E6"/>
<path d="M85 18H24C23.4477 18 23 18.4477 23 19V22C23 22.5523 23.4477 23 24 23H85C85.5523 23 86 22.5523 86 22V19C86 18.4477 85.5523 18 85 18Z" fill="#E6E6E6"/>
<path d="M85 26H24C23.4477 26 23 26.4477 23 27V30C23 30.5523 23.4477 31 24 31H85C85.5523 31 86 30.5523 86 30V27C86 26.4477 85.5523 26 85 26Z" fill="#E6E6E6"/>
<path d="M85 34H24C23.4477 34 23 34.4477 23 35V38C23 38.5523 23.4477 39 24 39H85C85.5523 39 86 38.5523 86 38V35C86 34.4477 85.5523 34 85 34Z" fill="#E6E6E6"/>
<path d="M85 8H72C71.4477 8 71 8.44772 71 9V11C71 11.5523 71.4477 12 72 12H85C85.5523 12 86 11.5523 86 11V9C86 8.44772 85.5523 8 85 8Z" fill="#F6B18A"/>
<path d="M57 60H45V67H57V60Z" fill="#D3D3D3"/>
<path d="M43 66H59C59.5304 66 60.0391 66.2107 60.4142 66.5858C60.7893 66.9609 61 67.4696 61 68V69H41V68C41 67.4696 41.2107 66.9609 41.5858 66.5858C41.9609 66.2107 42.4696 66 43 66V66Z" fill="#D3D3D3"/>
<path d="M51 58C52.1046 58 53 57.1046 53 56C53 54.8954 52.1046 54 51 54C49.8954 54 49 54.8954 49 56C49 57.1046 49.8954 58 51 58Z" fill="white"/>
<path d="M10 11H12C12.5523 11 13 10.5523 13 10C13 9.44772 12.5523 9 12 9H10C9.44772 9 9 9.44772 9 10C9 10.5523 9.44772 11 10 11Z" fill="white"/>
<path opacity="0.5" d="M10 20H12C12.5523 20 13 19.5523 13 19C13 18.4477 12.5523 18 12 18H10C9.44772 18 9 18.4477 9 19C9 19.5523 9.44772 20 10 20Z" fill="white"/>
<path opacity="0.5" d="M10 24H12C12.5523 24 13 23.5523 13 23C13 22.4477 12.5523 22 12 22H10C9.44772 22 9 22.4477 9 23C9 23.5523 9.44772 24 10 24Z" fill="white"/>
<path opacity="0.5" d="M10 28H12C12.5523 28 13 27.5523 13 27C13 26.4477 12.5523 26 12 26H10C9.44772 26 9 26.4477 9 27C9 27.5523 9.44772 28 10 28Z" fill="white"/>
<path opacity="0.5" d="M10 32H12C12.5523 32 13 31.5523 13 31C13 30.4477 12.5523 30 12 30H10C9.44772 30 9 30.4477 9 31C9 31.5523 9.44772 32 10 32Z" fill="white"/>
<path opacity="0.5" d="M10 43H12C12.5523 43 13 42.5523 13 42C13 41.4477 12.5523 41 12 41H10C9.44772 41 9 41.4477 9 42C9 42.5523 9.44772 43 10 43Z" fill="white"/>
</svg>
