<?xml version="1.0" encoding="utf-8"?>
<!-- Generator: Adobe Illustrator 27.0.1, SVG Export Plug-In . SVG Version: 6.00 Build 0)  -->
<svg version="1.1" id="Layer_1" xmlns="http://www.w3.org/2000/svg" xmlns:xlink="http://www.w3.org/1999/xlink" x="0px" y="0px"
	 viewBox="0 0 93 83" style="enable-background:new 0 0 93 83;" xml:space="preserve">
<style type="text/css">
	.st0{fill:#F8F8F8;}
	.st1{fill:#20201D;}
	.st2{fill:#FFFFFF;}
	.st3{fill:#5482DB;}
</style>
<path class="st0" d="M70,0H10C4.5,0,0,4.5,0,10v60c0,5.5,4.5,10,10,10h60c5.5,0,10-4.5,10-10V10C80,4.5,75.5,0,70,0z"/>
<path class="st1" d="M34,38H21c-0.8,0-1.6-0.3-2.1-0.9C18.3,36.6,18,35.8,18,35V22c0-0.8,0.3-1.6,0.9-2.1c0.6-0.6,1.3-0.9,2.1-0.9
	h13c0.8,0,1.6,0.3,2.1,0.9c0.6,0.6,0.9,1.3,0.9,2.1v13c0,0.8-0.3,1.6-0.9,2.1S34.8,38,34,38z M21,22v13h13V22H21z"/>
<path class="st1" d="M30,26h-5v5h5V26z"/>
<path class="st1" d="M54,26h-5v5h5V26z"/>
<path class="st1" d="M30,50h-5v5h5V50z"/>
<path class="st1" d="M58,38H45c-0.8,0-1.6-0.3-2.1-0.9S42,35.8,42,35V22c0-0.8,0.3-1.6,0.9-2.1c0.6-0.6,1.3-0.9,2.1-0.9h13
	c0.8,0,1.6,0.3,2.1,0.9c0.6,0.6,0.9,1.3,0.9,2.1v13c0,0.8-0.3,1.6-0.9,2.1S58.8,38,58,38z M45,22v13h13V22H45z"/>
<path class="st1" d="M34,62H21c-0.8,0-1.6-0.3-2.1-0.9C18.3,60.6,18,59.8,18,59V46c0-0.8,0.3-1.6,0.9-2.1c0.6-0.6,1.3-0.9,2.1-0.9
	h13c0.8,0,1.6,0.3,2.1,0.9S37,45.2,37,46v13c0,0.8-0.3,1.6-0.9,2.1S34.8,62,34,62z M21,46v13h13V46H21z"/>
<path class="st1" d="M48,44h-4v4h4V44z"/>
<path class="st1" d="M52,48h-4v4h4V48z"/>
<path class="st1" d="M48,52h-4v4h4V52z"/>
<path class="st1" d="M56,44h-4v4h4V44z"/>
<path class="st1" d="M60,48h-4v4h4V48z"/>
<path class="st1" d="M57,57h-4v4h4V57z"/>
<path class="st2" d="M79,51c3.6,0,7,1.1,10,3c3,2,5.3,4.8,6.6,8.1c1.4,3.3,1.7,6.9,1,10.4c-0.7,3.5-2.4,6.7-4.9,9.2
	c-2.5,2.5-5.7,4.2-9.2,4.9c-3.5,0.7-7.1,0.3-10.4-1C68.8,84.3,66,82,64,79c-2-3-3-6.4-3-10c0-4.8,1.9-9.4,5.3-12.7
	C69.6,52.9,74.2,51,79,51z"/>
<path class="st3" d="M79,83c-2.8,0-5.5-0.8-7.8-2.4c-2.3-1.5-4.1-3.7-5.2-6.3c-1.1-2.6-1.3-5.4-0.8-8.1c0.5-2.7,1.9-5.2,3.8-7.2
	c2-2,4.5-3.3,7.2-3.8c2.7-0.5,5.5-0.3,8.1,0.8c2.6,1.1,4.7,2.9,6.3,5.2s2.4,5,2.4,7.8c0,3.7-1.5,7.3-4.1,9.9
	C86.3,81.5,82.7,83,79,83z"/>
<path class="st2" d="M85.1,73.6c0,0.2-0.1,0.4-0.2,0.6s-0.4,0.2-0.6,0.2H72.9c-0.1,0-0.2,0-0.3-0.1c-0.1,0-0.2-0.1-0.3-0.2
	c-0.1-0.1-0.1-0.2-0.2-0.3c0-0.1-0.1-0.2-0.1-0.3c0-0.1,0-0.2,0.1-0.3s0.1-0.2,0.2-0.3c0.1-0.1,0.2-0.1,0.3-0.2
	c0.1,0,0.2-0.1,0.3-0.1h11.3c0.2,0,0.4,0.1,0.6,0.2C85,73.2,85.1,73.4,85.1,73.6z M78,71c0.2,0.2,0.4,0.2,0.6,0.2
	c0.2,0,0.4-0.1,0.6-0.2l2.9-2.9c0.1-0.2,0.2-0.4,0.2-0.6c0-0.2-0.1-0.4-0.2-0.6c-0.1-0.1-0.4-0.2-0.6-0.2c-0.2,0-0.4,0.1-0.6,0.2
	l-1.5,1.5v-6.2c0-0.2-0.1-0.4-0.2-0.6c-0.2-0.1-0.4-0.2-0.6-0.2s-0.4,0.1-0.6,0.2c-0.2,0.1-0.2,0.3-0.2,0.6v6.2L76.3,67
	c-0.1-0.1-0.2-0.1-0.3-0.2c-0.1,0-0.2-0.1-0.3-0.1c-0.1,0-0.2,0-0.3,0.1c-0.1,0-0.2,0.1-0.3,0.2c-0.1,0.1-0.1,0.2-0.2,0.3
	c0,0.1-0.1,0.2-0.1,0.3c0,0.1,0,0.2,0.1,0.3c0,0.1,0.1,0.2,0.2,0.3L78,71z"/>
</svg>
