<svg width="80" height="80" viewBox="0 0 80 80" fill="none" xmlns="http://www.w3.org/2000/svg">
<path d="M70 0H10C4.47715 0 0 4.47715 0 10V70C0 75.5229 4.47715 80 10 80H70C75.5229 80 80 75.5229 80 70V10C80 4.47715 75.5229 0 70 0Z" fill="#F8F8F8"/>
<path d="M20 20H33C33.7956 20 34.5587 20.3161 35.1213 20.8787C35.6839 21.4413 36 22.2044 36 23V36C36 36.7956 35.6839 37.5587 35.1213 38.1213C34.5587 38.6839 33.7956 39 33 39H20C19.2044 39 18.4413 38.6839 17.8787 38.1213C17.3161 37.5587 17 36.7956 17 36V23C17 22.2044 17.3161 21.4413 17.8787 20.8787C18.4413 20.3161 19.2044 20 20 20Z" fill="#A5A9FB"/>
<path d="M45 46H58C58.7956 46 59.5587 46.3161 60.1213 46.8787C60.6839 47.4413 61 48.2044 61 49V62C61 62.7956 60.6839 63.5587 60.1213 64.1213C59.5587 64.6839 58.7956 65 58 65H45C44.2044 65 43.4413 64.6839 42.8787 64.1213C42.3161 63.5587 42 62.7956 42 62V49C42 48.2044 42.3161 47.4413 42.8787 46.8787C43.4413 46.3161 44.2044 46 45 46Z" fill="#F7E68B"/>
<path d="M20 46H33C33.7956 46 34.5587 46.3161 35.1213 46.8787C35.6839 47.4413 36 48.2044 36 49V62C36 62.7956 35.6839 63.5587 35.1213 64.1213C34.5587 64.6839 33.7956 65 33 65H20C19.2044 65 18.4413 64.6839 17.8787 64.1213C17.3161 63.5587 17 62.7956 17 62V49C17 48.2044 17.3161 47.4413 17.8787 46.8787C18.4413 46.3161 19.2044 46 20 46Z" fill="#F6B18A"/>
<path d="M43 18H60C60.7956 18 61.5587 18.3161 62.1213 18.8787C62.6839 19.4413 63 20.2044 63 21V38C63 38.7956 62.6839 39.5587 62.1213 40.1213C61.5587 40.6839 60.7956 41 60 41H43C42.2044 41 41.4413 40.6839 40.8787 40.1213C40.3161 39.5587 40 38.7956 40 38V21C40 20.2044 40.3161 19.4413 40.8787 18.8787C41.4413 18.3161 42.2044 18 43 18Z" fill="white"/>
<path d="M60 41H43C42.2044 41 41.4413 40.6839 40.8787 40.1213C40.3161 39.5587 40 38.7956 40 38V21C40 20.2044 40.3161 19.4413 40.8787 18.8787C41.4413 18.3161 42.2044 18 43 18H60C60.7956 18 61.5587 18.3161 62.1213 18.8787C62.6839 19.4413 63 20.2044 63 21V38C63 38.7956 62.6839 39.5587 62.1213 40.1213C61.5587 40.6839 60.7956 41 60 41ZM43 20C42.7348 20 42.4804 20.1054 42.2929 20.2929C42.1054 20.4804 42 20.7348 42 21V38C42 38.2652 42.1054 38.5196 42.2929 38.7071C42.4804 38.8946 42.7348 39 43 39H60C60.2652 39 60.5196 38.8946 60.7071 38.7071C60.8946 38.5196 61 38.2652 61 38V21C61 20.7348 60.8946 20.4804 60.7071 20.2929C60.5196 20.1054 60.2652 20 60 20H43Z" fill="#20201D"/>
<path d="M45 20H58C58.7956 20 59.5587 20.3161 60.1213 20.8787C60.6839 21.4413 61 22.2044 61 23V36C61 36.7956 60.6839 37.5587 60.1213 38.1213C59.5587 38.6839 58.7956 39 58 39H45C44.2044 39 43.4413 38.6839 42.8787 38.1213C42.3161 37.5587 42 36.7956 42 36V23C42 22.2044 42.3161 21.4413 42.8787 20.8787C43.4413 20.3161 44.2044 20 45 20Z" fill="#E89296"/>
<path d="M58 39H45C44.2044 39 43.4413 38.6839 42.8787 38.1213C42.3161 37.5587 42 36.7956 42 36V23C42 22.2044 42.3161 21.4413 42.8787 20.8787C43.4413 20.3161 44.2044 20 45 20H58C58.7956 20 59.5587 20.3161 60.1213 20.8787C60.6839 21.4413 61 22.2044 61 23V36C61 36.7956 60.6839 37.5587 60.1213 38.1213C59.5587 38.6839 58.7956 39 58 39ZM45 22C44.7348 22 44.4804 22.1054 44.2929 22.2929C44.1054 22.4804 44 22.7348 44 23V36C44 36.2652 44.1054 36.5196 44.2929 36.7071C44.4804 36.8946 44.7348 37 45 37H58C58.2652 37 58.5196 36.8946 58.7071 36.7071C58.8946 36.5196 59 36.2652 59 36V23C59 22.7348 58.8946 22.4804 58.7071 22.2929C58.5196 22.1054 58.2652 22 58 22H45Z" fill="white"/>
<path d="M63 8C64.78 8 66.5201 8.52784 68.0001 9.51677C69.4802 10.5057 70.6337 11.9113 71.3149 13.5558C71.9961 15.2004 72.1743 17.01 71.8271 18.7558C71.4798 20.5016 70.6226 22.1053 69.364 23.364C68.1053 24.6226 66.5016 25.4798 64.7558 25.8271C63.01 26.1743 61.2004 25.9961 59.5558 25.3149C57.9113 24.6337 56.5057 23.4802 55.5168 22.0001C54.5279 20.5201 54 18.78 54 17C54 14.6131 54.9482 12.3239 56.636 10.636C58.3239 8.94821 60.6131 8 63 8Z" fill="#20201D"/>
<path d="M63 28C60.8244 28 58.6977 27.3549 56.8887 26.1462C55.0798 24.9375 53.6699 23.2195 52.8373 21.2095C52.0048 19.1995 51.7869 16.9878 52.2114 14.854C52.6358 12.7202 53.6835 10.7602 55.2218 9.22183C56.7602 7.68345 58.7202 6.6358 60.854 6.21137C62.9878 5.78693 65.1995 6.00477 67.2095 6.83733C69.2195 7.66989 70.9375 9.07979 72.1462 10.8887C73.3549 12.6977 74 14.8244 74 17C73.9966 19.9163 72.8365 22.7122 70.7744 24.7744C68.7122 26.8365 65.9163 27.9966 63 28ZM63 8.00001C61.22 8.00001 59.4799 8.52785 57.9999 9.51678C56.5198 10.5057 55.3663 11.9113 54.6851 13.5559C54.0039 15.2004 53.8257 17.01 54.1729 18.7558C54.5202 20.5016 55.3774 22.1053 56.6361 23.364C57.8947 24.6226 59.4984 25.4798 61.2442 25.8271C62.99 26.1743 64.7996 25.9961 66.4442 25.3149C68.0887 24.6337 69.4943 23.4802 70.4832 22.0001C71.4722 20.5201 72 18.78 72 17C71.9971 14.6139 71.048 12.3265 69.3608 10.6393C67.6736 8.95206 65.3861 8.00292 63 8.00001Z" fill="#F8F8F8"/>
<path d="M65.9675 16.2729L63.0675 19.1729C62.8748 19.3655 62.6136 19.4736 62.3412 19.4735C62.0688 19.4734 61.8076 19.3651 61.615 19.1724C61.4225 18.9798 61.3144 18.7185 61.3145 18.4461C61.3145 18.1737 61.4228 17.9125 61.6155 17.7199L64.5155 14.8199C64.61 14.7209 64.7234 14.6418 64.8489 14.5872C64.9744 14.5326 65.1096 14.5036 65.2465 14.502C65.3834 14.5004 65.5192 14.5262 65.646 14.5778C65.7727 14.6295 65.8879 14.706 65.9847 14.8028C66.0815 14.8996 66.1579 15.0147 66.2096 15.1415C66.2612 15.2683 66.287 15.4041 66.2854 15.541C66.2838 15.6778 66.2549 15.813 66.2003 15.9386C66.1457 16.0641 66.0665 16.1774 65.9675 16.2719" fill="white"/>
<path d="M61.611 19.179L60.033 17.6C59.8404 17.4073 59.7323 17.146 59.7324 16.8736C59.7325 16.6012 59.8408 16.34 60.0335 16.1475C60.2262 15.9549 60.4875 15.8468 60.7599 15.8469C61.0323 15.847 61.2934 15.9553 61.486 16.148L63.063 17.726C63.2482 17.92 63.3501 18.1788 63.347 18.447C63.3438 18.7152 63.2359 18.9716 63.0462 19.1612C62.8565 19.3509 62.6002 19.4588 62.332 19.4619C62.0638 19.4651 61.805 19.3632 61.611 19.178" fill="white"/>
</svg>
