<svg width="109" height="67" viewBox="0 0 109 67" fill="none" xmlns="http://www.w3.org/2000/svg">
<path d="M14 0H95C96.3132 0 97.6136 0.258658 98.8268 0.761205C100.04 1.26375 101.142 2.00035 102.071 2.92893C103 3.85752 103.736 4.95991 104.239 6.17317C104.741 7.38642 105 8.68678 105 10V59H4V10C4 7.34784 5.05357 4.8043 6.92893 2.92893C8.8043 1.05357 11.3478 0 14 0V0Z" fill="#F8F8F8"/>
<path d="M14 6H95C96.0609 6 97.0783 6.42143 97.8284 7.17157C98.5786 7.92172 99 8.93913 99 10V15H10V10C10 8.93913 10.4214 7.92172 11.1716 7.17157C11.9217 6.42143 12.9391 6 14 6V6Z" fill="#5482DB"/>
<path d="M10 15H99V50C99 51.0609 98.5786 52.0783 97.8284 52.8284C97.0783 53.5786 96.0609 54 95 54H14C12.9391 54 11.9217 53.5786 11.1716 52.8284C10.4214 52.0783 10 51.0609 10 50V15Z" fill="white"/>
<path d="M1.333 59H107.667C108.021 59 108.36 59.1404 108.61 59.3904C108.86 59.6404 109 59.9795 109 60.333C109 61.2085 108.828 62.0755 108.493 62.8844C108.157 63.6932 107.666 64.4282 107.047 65.0473C106.428 65.6664 105.693 66.1575 104.884 66.4925C104.075 66.8276 103.209 67 102.333 67H6.667C4.8988 67 3.20302 66.2976 1.95272 65.0473C0.702414 63.797 0 62.1012 0 60.333H0C0 59.9795 0.140441 59.6404 0.390427 59.3904C0.640413 59.1404 0.979466 59 1.333 59Z" fill="#E6E6E6"/>
<path d="M44 59H65C65 59.7956 64.6839 60.5587 64.1213 61.1213C63.5587 61.6839 62.7956 62 62 62H47C46.2044 62 45.4413 61.6839 44.8787 61.1213C44.3161 60.5587 44 59.7956 44 59V59Z" fill="#D3D3D3"/>
<path d="M27 9H18C17.4477 9 17 9.44772 17 10V11C17 11.5523 17.4477 12 18 12H27C27.5523 12 28 11.5523 28 11V10C28 9.44772 27.5523 9 27 9Z" fill="white"/>
<path d="M68.5 22H52.5C51.6716 22 51 22.6716 51 23.5C51 24.3284 51.6716 25 52.5 25H68.5C69.3284 25 70 24.3284 70 23.5C70 22.6716 69.3284 22 68.5 22Z" fill="#E6E6E6"/>
<path d="M68.5 35H52.5C51.6716 35 51 35.6716 51 36.5C51 37.3284 51.6716 38 52.5 38H68.5C69.3284 38 70 37.3284 70 36.5C70 35.6716 69.3284 35 68.5 35Z" fill="#E6E6E6"/>
<path d="M68.5 39H52.5C51.6716 39 51 39.6716 51 40.5C51 41.3284 51.6716 42 52.5 42H68.5C69.3284 42 70 41.3284 70 40.5C70 39.6716 69.3284 39 68.5 39Z" fill="#E6E6E6"/>
<path d="M68.5 43H52.5C51.6716 43 51 43.6716 51 44.5C51 45.3284 51.6716 46 52.5 46H68.5C69.3284 46 70 45.3284 70 44.5C70 43.6716 69.3284 43 68.5 43Z" fill="#E6E6E6"/>
<path d="M89.5 35H73.5C72.6716 35 72 35.6716 72 36.5C72 37.3284 72.6716 38 73.5 38H89.5C90.3284 38 91 37.3284 91 36.5C91 35.6716 90.3284 35 89.5 35Z" fill="#E6E6E6"/>
<path d="M89.5 39H73.5C72.6716 39 72 39.6716 72 40.5C72 41.3284 72.6716 42 73.5 42H89.5C90.3284 42 91 41.3284 91 40.5C91 39.6716 90.3284 39 89.5 39Z" fill="#E6E6E6"/>
<path d="M89.5 43H73.5C72.6716 43 72 43.6716 72 44.5C72 45.3284 72.6716 46 73.5 46H89.5C90.3284 46 91 45.3284 91 44.5C91 43.6716 90.3284 43 89.5 43Z" fill="#E6E6E6"/>
<path d="M89.5 26H52.5C51.6716 26 51 26.6716 51 27.5C51 28.3284 51.6716 29 52.5 29H89.5C90.3284 29 91 28.3284 91 27.5C91 26.6716 90.3284 26 89.5 26Z" fill="#E6E6E6"/>
<path d="M68 9H63C62.4477 9 62 9.44772 62 10V11C62 11.5523 62.4477 12 63 12H68C68.5523 12 69 11.5523 69 11V10C69 9.44772 68.5523 9 68 9Z" fill="white"/>
<path d="M79 9H74C73.4477 9 73 9.44772 73 10V11C73 11.5523 73.4477 12 74 12H79C79.5523 12 80 11.5523 80 11V10C80 9.44772 79.5523 9 79 9Z" fill="white"/>
<path d="M90 9H85C84.4477 9 84 9.44772 84 10V11C84 11.5523 84.4477 12 85 12H90C90.5523 12 91 11.5523 91 11V10C91 9.44772 90.5523 9 90 9Z" fill="white"/>
<path d="M38 22H20C18.3431 22 17 23.3431 17 25V43C17 44.6569 18.3431 46 20 46H38C39.6569 46 41 44.6569 41 43V25C41 23.3431 39.6569 22 38 22Z" fill="#E89296"/>
</svg>
